<svg width="31" height="26" viewBox="0 0 31 26" fill="none" xmlns="http://www.w3.org/2000/svg">
<path d="M20.8333 0H10.1667C7.69132 0 5.31736 1.03796 3.56701 2.88555C1.81668 4.73312 0.833344 7.23897 0.833344 9.85187C0.833344 12.4647 1.81668 14.9705 3.56701 16.8181C5.31736 18.6657 7.69132 19.7037 10.1667 19.7037H15.5V25.3333L26.38 17.7475C27.5683 16.852 28.5335 15.666 29.1929 14.2911C29.8524 12.916 30.1864 11.3928 30.1667 9.85187C30.1667 7.23897 29.1833 4.73312 27.4329 2.88555C25.6827 1.03796 23.3087 0 20.8333 0ZM10.1667 11.6111C9.83704 11.6111 9.51481 11.508 9.24073 11.3147C8.96665 11.1213 8.75302 10.8465 8.62688 10.5251C8.50073 10.2036 8.46773 9.84987 8.53204 9.50867C8.59634 9.16737 8.75508 8.85391 8.98817 8.60787C9.22125 8.36183 9.51822 8.19428 9.84153 8.1264C10.1648 8.05852 10.4999 8.09336 10.8045 8.22651C11.109 8.35967 11.3693 8.58515 11.5525 8.87447C11.7356 9.16377 11.8333 9.50387 11.8333 9.85187C11.8333 10.3184 11.6577 10.7659 11.3452 11.0959C11.0326 11.4257 10.6087 11.6111 10.1667 11.6111ZM15.5 11.6111C15.1704 11.6111 14.8481 11.508 14.574 11.3147C14.3 11.1213 14.0864 10.8465 13.9603 10.5251C13.834 10.2036 13.8011 9.84987 13.8653 9.50867C13.9296 9.16737 14.0884 8.85391 14.3215 8.60787C14.5545 8.36183 14.8516 8.19428 15.1748 8.1264C15.4981 8.05852 15.8332 8.09336 16.1379 8.22651C16.4424 8.35967 16.7027 8.58515 16.8857 8.87447C17.0689 9.16377 17.1667 9.50387 17.1667 9.85187C17.1667 10.3184 16.9911 10.7659 16.6785 11.0959C16.366 11.4257 15.942 11.6111 15.5 11.6111ZM20.8333 11.6111C20.5037 11.6111 20.1815 11.508 19.9073 11.3147C19.6333 11.1213 19.4197 10.8465 19.2936 10.5251C19.1673 10.2036 19.1344 9.84987 19.1987 9.50867C19.2629 9.16737 19.4217 8.85391 19.6548 8.60787C19.8879 8.36183 20.1849 8.19428 20.5081 8.1264C20.8315 8.05852 21.1665 8.09336 21.4712 8.22651C21.7757 8.35967 22.036 8.58515 22.2191 8.87447C22.4023 9.16377 22.5 9.50387 22.5 9.85187C22.5 10.3184 22.3244 10.7659 22.0119 11.0959C21.6993 11.4257 21.2753 11.6111 20.8333 11.6111Z" fill="black" fill-opacity="0.9"/>
</svg>
