<svg width="13" height="8" viewBox="0 0 13 8" fill="none" xmlns="http://www.w3.org/2000/svg">
<path d="M7.3 6.66002L12.5 1.12002C12.5136 1.10966 12.5229 1.09471 12.5262 1.07797C12.5295 1.06123 12.5266 1.04385 12.518 1.02911C12.5094 1.01437 12.4957 1.00328 12.4795 0.997924C12.4633 0.992566 12.4457 0.993312 12.43 1.00002H0.57C0.554309 0.993312 0.536708 0.992566 0.520505 0.997924C0.504303 1.00328 0.490615 1.01437 0.482016 1.02911C0.473418 1.04385 0.4705 1.06123 0.473812 1.07797C0.477124 1.09471 0.486437 1.10966 0.5 1.12002L5.7 6.66002C5.80282 6.76898 5.92682 6.85578 6.06439 6.91511C6.20195 6.97444 6.35019 7.00504 6.5 7.00504C6.64981 7.00504 6.79805 6.97444 6.93562 6.91511C7.07318 6.85578 7.19718 6.76898 7.3 6.66002Z" fill="#666666" fill-opacity="0.6"/>
</svg>
