<svg width="23" height="19" viewBox="0 0 23 19" fill="none" xmlns="http://www.w3.org/2000/svg">
<path d="M15.5 0H7.5C5.64348 0 3.86301 0.77847 2.55025 2.16416C1.2375 3.54984 0.5 5.42923 0.5 7.3889C0.5 9.3485 1.2375 11.2279 2.55025 12.6136C3.86301 13.9993 5.64348 14.7778 7.5 14.7778H11.5V19L19.66 13.3106C20.5512 12.639 21.2751 11.7495 21.7697 10.7183C22.2643 9.687 22.5148 8.5446 22.5 7.3889C22.5 5.42923 21.7625 3.54984 20.4497 2.16416C19.137 0.77847 17.3565 0 15.5 0ZM7.5 8.7083C7.25277 8.7083 7.0111 8.631 6.80554 8.486C6.59998 8.341 6.43976 8.1349 6.34515 7.8938C6.25054 7.6527 6.22579 7.3874 6.27402 7.1315C6.32225 6.87553 6.4413 6.64043 6.61612 6.4559C6.79093 6.27137 7.01366 6.14571 7.25614 6.0948C7.49861 6.04389 7.74995 6.07002 7.97835 6.16988C8.20676 6.26975 8.40199 6.43886 8.53934 6.65585C8.67669 6.87283 8.75 7.1279 8.75 7.3889C8.75 7.7388 8.6183 8.0744 8.38388 8.3219C8.14946 8.5693 7.83152 8.7083 7.5 8.7083ZM11.5 8.7083C11.2528 8.7083 11.0111 8.631 10.8055 8.486C10.6 8.341 10.4398 8.1349 10.3452 7.8938C10.2505 7.6527 10.2258 7.3874 10.274 7.1315C10.3222 6.87553 10.4413 6.64043 10.6161 6.4559C10.7909 6.27137 11.0137 6.14571 11.2561 6.0948C11.4986 6.04389 11.7499 6.07002 11.9784 6.16988C12.2068 6.26975 12.402 6.43886 12.5393 6.65585C12.6767 6.87283 12.75 7.1279 12.75 7.3889C12.75 7.7388 12.6183 8.0744 12.3839 8.3219C12.1495 8.5693 11.8315 8.7083 11.5 8.7083ZM15.5 8.7083C15.2528 8.7083 15.0111 8.631 14.8055 8.486C14.6 8.341 14.4398 8.1349 14.3452 7.8938C14.2505 7.6527 14.2258 7.3874 14.274 7.1315C14.3222 6.87553 14.4413 6.64043 14.6161 6.4559C14.7909 6.27137 15.0137 6.14571 15.2561 6.0948C15.4986 6.04389 15.7499 6.07002 15.9784 6.16988C16.2068 6.26975 16.402 6.43886 16.5393 6.65585C16.6767 6.87283 16.75 7.1279 16.75 7.3889C16.75 7.7388 16.6183 8.0744 16.3839 8.3219C16.1495 8.5693 15.8315 8.7083 15.5 8.7083Z" fill="#666666" fill-opacity="0.6"/>
</svg>
