<svg width="3" height="14" viewBox="0 0 3 14" fill="none" xmlns="http://www.w3.org/2000/svg">
<path d="M1.49999 5.66666C1.7637 5.66666 2.02148 5.74485 2.24075 5.89136C2.46002 6.03787 2.63091 6.24611 2.73183 6.48974C2.83275 6.73338 2.85915 7.00147 2.8077 7.26011C2.75626 7.51875 2.62927 7.75633 2.4428 7.9428C2.25633 8.12927 2.01875 8.25626 1.76011 8.3077C1.50147 8.35915 1.23338 8.33275 0.989745 8.23183C0.746111 8.13091 0.537872 7.96001 0.391364 7.74075C0.244855 7.52148 0.166656 7.2637 0.166656 6.99999C0.166656 6.64637 0.307133 6.30723 0.557181 6.05718C0.80723 5.80713 1.14637 5.66666 1.49999 5.66666ZM0.166656 12.3333C0.166656 12.597 0.244855 12.8548 0.391364 13.0741C0.537872 13.2933 0.746111 13.4642 0.989745 13.5652C1.23338 13.6661 1.50147 13.6925 1.76011 13.641C2.01875 13.5896 2.25633 13.4626 2.4428 13.2761C2.62927 13.0897 2.75626 12.8521 2.8077 12.5934C2.85915 12.3348 2.83275 12.0667 2.73183 11.8231C2.63091 11.5794 2.46002 11.3712 2.24075 11.2247C2.02148 11.0782 1.7637 11 1.49999 11C1.14637 11 0.80723 11.1405 0.557181 11.3905C0.307133 11.6406 0.166656 11.9797 0.166656 12.3333ZM0.166656 1.66666C0.166656 1.93036 0.244855 2.18815 0.391364 2.40742C0.537872 2.62668 0.746111 2.79758 0.989745 2.8985C1.23338 2.99941 1.50147 3.02582 1.76011 2.97437C2.01875 2.92292 2.25633 2.79593 2.4428 2.60946C2.62927 2.42299 2.75626 2.18542 2.8077 1.92678C2.85915 1.66814 2.83275 1.40005 2.73183 1.15641C2.63091 0.912776 2.46002 0.704538 2.24075 0.55803C2.02148 0.411522 1.7637 0.333323 1.49999 0.333323C1.14637 0.333323 0.80723 0.473799 0.557181 0.723847C0.307133 0.973896 0.166656 1.31303 0.166656 1.66666Z" fill="black" fill-opacity="0.9"/>
</svg>
